Love presents many challenges to couples...but none so daunting as the one Justin faces with his girlfriend April. Kidnapped by demons, April's mystery begins to unfold when he finds an ancient book that she has left behind. Using the book, he contacts the demon Lo, ordering it to help him rescue his girl from the fiery pits. But Lo has other plans for his new master...dinner being one of them

Formaat                          : AVI
Formaat/Info                     : Audio Video Interleave
Bestandsgrootte                  : 700 MiB
Duration                         : 1h 20mn
Totale bitrate                   : 1 212 Kbps

Video
Formaat                          : MPEG-4 Visual
Format profile                   : Streaming Video@L1
Format settings, BVOP            : Ja
Format settings, QPel            : Nee
Format settings, GMC             : No warppoints
Format settings, Matrix          : Default
Muxing mode                      : Packed bitstream
Codec ID                         : XVID
Codec ID/Hint                    : XviD
Duration                         : 1h 20mn
Bitrate                          : 1 062 Kbps
Breedte                          : 624 pixels
Hoogte                           : 352 pixels
Beeldverhouding                  : 16/9
Framerate                        : 23,976 fps
Resolutie                        : 24 bits
Colorimetry                      : 4:2:0
Scan type                        : Progressive
Bits/(Pixel*Frame)               : 0.202
Stream size                      : 613 MiB (88%)
Gebruikte encoder-bibliotheek    : XviD 50

Audio
Formaat                          : MPEG Audio
Format version                   : Version 1
Format profile                   : Layer 3
Codec ID                         : 55
Codec ID/Hint                    : MP3
Duration                         : 1h 20mn
Bitrate-modus                    : Variable
Bitrate                          : 138 Kbps
Minimum bit rate                 : 32,0 Kbps
Kanaal(en)                       : 2 kanalen
Samplerate                       : 48,0 KHz
Resolutie                        : 16 bits
Stream size                      : 79,7 MiB (11%)
Alignment                        : Aligned on interleaves
Interleave, duration             : 24 ms (0,58 video frame)
Interleave, preload duration     : 322 ms
Gebruikte encoder-bibliotheek    : LAME3.98r
Instellingen codering            : VBR (mtrh)